<?xml version="1.0" encoding="UTF-8" standalone="no"?>
<!-- Created with Inkscape (http://www.inkscape.org/) -->

<svg
   xmlns:dc="http://purl.org/dc/elements/1.1/"
   xmlns:cc="http://creativecommons.org/ns#"
   xmlns:rdf="http://www.w3.org/1999/02/22-rdf-syntax-ns#"
   xmlns:svg="http://www.w3.org/2000/svg"
   xmlns="http://www.w3.org/2000/svg"
   xmlns:sodipodi="http://sodipodi.sourceforge.net/DTD/sodipodi-0.dtd"
   xmlns:inkscape="http://www.inkscape.org/namespaces/inkscape"
   width="24"
   height="24"
   id="svg2"
   version="1.1"
   inkscape:version="0.48.4 r9939"
   sodipodi:docname="icon.svg">
  <defs
     id="defs4" />
  <sodipodi:namedview
     id="base"
     pagecolor="#ffffff"
     bordercolor="#666666"
     borderopacity="1.0"
     inkscape:pageopacity="0.0"
     inkscape:pageshadow="2"
     inkscape:zoom="23.708333"
     inkscape:cx="12"
     inkscape:cy="12"
     inkscape:document-units="px"
     inkscape:current-layer="layer1"
     showgrid="false"
     inkscape:window-width="820"
     inkscape:window-height="716"
     inkscape:window-x="545"
     inkscape:window-y="24"
     inkscape:window-maximized="0" />
  <metadata
     id="metadata7">
    <rdf:RDF>
      <cc:Work
         rdf:about="">
        <dc:format>image/svg+xml</dc:format>
        <dc:type
           rdf:resource="http://purl.org/dc/dcmitype/StillImage" />
        <dc:title></dc:title>
      </cc:Work>
    </rdf:RDF>
  </metadata>
  <g
     inkscape:label="Layer 1"
     inkscape:groupmode="layer"
     id="layer1"
     transform="translate(0,-1028.3622)">
    <path
       style="fill:none;stroke:#000000;stroke-width:1px;stroke-linecap:butt;stroke-linejoin:miter;stroke-opacity:1"
       d="M 2.1933216,1.8558875 21.511424,6.3690685"
       id="path3920"
       inkscape:connector-curvature="0"
       transform="translate(0,1028.3622)" />
    <path
       style="fill:none;stroke:#000000;stroke-width:1px;stroke-linecap:butt;stroke-linejoin:miter;stroke-opacity:1"
       d="M 2.1089631,8.0140598 21.13181,6.7065026"
       id="path3922"
       inkscape:connector-curvature="0"
       transform="translate(0,1028.3622)" />
    <path
       style="fill:none;stroke:#000000;stroke-width:1px;stroke-linecap:butt;stroke-linejoin:miter;stroke-opacity:1"
       d="M 2.1511424,14.045694 21.469244,6.7908612"
       id="path3924"
       inkscape:connector-curvature="0"
       transform="translate(0,1028.3622)" />
    <path
       style="fill:none;stroke:#000000;stroke-width:1px;stroke-linecap:butt;stroke-linejoin:miter;stroke-opacity:1"
       d="M 2.3198594,8.1827768 21.342707,16.407733"
       id="path3926"
       inkscape:connector-curvature="0"
       transform="translate(0,1028.3622)" />
    <path
       style="fill:none;stroke:#000000;stroke-width:1px;stroke-linecap:butt;stroke-linejoin:miter;stroke-opacity:1"
       d="m 2.2355009,14.130053 19.2337431,2.27768"
       id="path3928"
       inkscape:connector-curvature="0"
       transform="translate(0,1028.3622)" />
    <path
       style="fill:none;stroke:#000000;stroke-width:1px;stroke-linecap:butt;stroke-linejoin:miter;stroke-opacity:1"
       d="M 2.1089631,20.119508 21.595782,16.57645"
       id="path3930"
       inkscape:connector-curvature="0"
       transform="translate(0,1028.3622)" />
    <path
       sodipodi:type="arc"
       style="fill:#1a1e7d;fill-opacity:1;stroke:#252cb5;stroke-width:1.89461899;stroke-miterlimit:4;stroke-opacity:1;stroke-dasharray:none"
       id="path2997"
       sodipodi:cx="8.1568241"
       sodipodi:cy="8.0326309"
       sodipodi:rx="4.2323146"
       sodipodi:ry="3.3473761"
       d="m 12.389139,8.0326309 a 4.2323146,3.3473761 0 1 1 -8.4646295,0 4.2323146,3.3473761 0 1 1 8.4646295,0 z"
       transform="matrix(0.37753598,0,0,0.47734434,-1.0794946,1044.5279)" />
    <path
       sodipodi:type="arc"
       style="fill:#1a1e7d;fill-opacity:1;stroke:#252cb5;stroke-width:1.89461899;stroke-miterlimit:4;stroke-opacity:1;stroke-dasharray:none"
       id="path2997-4"
       sodipodi:cx="8.1568241"
       sodipodi:cy="8.0326309"
       sodipodi:rx="4.2323146"
       sodipodi:ry="3.3473761"
       d="m 12.389139,8.0326309 a 4.2323146,3.3473761 0 1 1 -8.4646295,0 4.2323146,3.3473761 0 1 1 8.4646295,0 z"
       transform="matrix(0.37753598,0,0,0.47734434,-1.0794946,1026.5279)" />
    <path
       sodipodi:type="arc"
       style="fill:#1a1e7d;fill-opacity:1;stroke:#252cb5;stroke-width:1.89461899;stroke-miterlimit:4;stroke-opacity:1;stroke-dasharray:none"
       id="path2997-2"
       sodipodi:cx="8.1568241"
       sodipodi:cy="8.0326309"
       sodipodi:rx="4.2323146"
       sodipodi:ry="3.3473761"
       d="m 12.389139,8.0326309 a 4.2323146,3.3473761 0 1 1 -8.4646295,0 4.2323146,3.3473761 0 1 1 8.4646295,0 z"
       transform="matrix(0.37753598,0,0,0.47734434,-1.0794946,1032.5279)" />
    <path
       sodipodi:type="arc"
       style="fill:#1a1e7d;fill-opacity:1;stroke:#252cb5;stroke-width:1.89461899;stroke-miterlimit:4;stroke-opacity:1;stroke-dasharray:none"
       id="path2997-7"
       sodipodi:cx="8.1568241"
       sodipodi:cy="8.0326309"
       sodipodi:rx="4.2323146"
       sodipodi:ry="3.3473761"
       d="m 12.389139,8.0326309 a 4.2323146,3.3473761 0 1 1 -8.4646295,0 4.2323146,3.3473761 0 1 1 8.4646295,0 z"
       transform="matrix(0.37753598,0,0,0.47734434,-1.0794946,1038.5279)" />
    <path
       sodipodi:type="arc"
       style="fill:#7d1a3f;fill-opacity:1;stroke:#b52545;stroke-width:1.88449466;stroke-miterlimit:4;stroke-opacity:1;stroke-dasharray:none"
       id="path2997-4-1"
       sodipodi:cx="8.1568241"
       sodipodi:cy="8.0326309"
       sodipodi:rx="4.2323146"
       sodipodi:ry="3.3473761"
       d="m 12.389139,8.0326309 a 4.2323146,3.3473761 0 1 1 -8.4646295,0 4.2323146,3.3473761 0 1 1 8.4646295,0 z"
       transform="matrix(0.47242759,0,0,0.59732224,17.646491,1030.0641)" />
    <path
       sodipodi:type="arc"
       style="fill:#7d1a3f;fill-opacity:1;stroke:#b52545;stroke-width:1.88449466;stroke-miterlimit:4;stroke-opacity:1;stroke-dasharray:none"
       id="path2997-4-1-7"
       sodipodi:cx="8.1568241"
       sodipodi:cy="8.0326309"
       sodipodi:rx="4.2323146"
       sodipodi:ry="3.3473761"
       d="m 12.389139,8.0326309 a 4.2323146,3.3473761 0 1 1 -8.4646295,0 4.2323146,3.3473761 0 1 1 8.4646295,0 z"
       transform="matrix(0.47242759,0,0,0.59732224,17.646491,1040.0641)"
       inkscape:transform-center-x="-0.92794376"
       inkscape:transform-center-y="-8.1405975" />
  </g>
</svg>
